<svg version="1.1" viewBox="0.0 0.0 429.0 362.0" fill="none" stroke="none" stroke-linecap="square" stroke-miterlimit="10" width="429" height="362" xmlns:xlink="http://www.w3.org/1999/xlink" xmlns="http://www.w3.org/2000/svg"><path fill="#ffffff" d="M0 0L429.0 0L429.0 362.0L0 362.0L0 0Z" fill-rule="nonzero"/><path stroke="#cccccc" stroke-width="1.0" stroke-linecap="butt" d="M84.5 61.5L84.5 291.5" fill-rule="nonzero"/><path stroke="#cccccc" stroke-width="1.0" stroke-linecap="butt" d="M149.5 61.5L149.5 291.5" fill-rule="nonzero"/><path stroke="#cccccc" stroke-width="1.0" stroke-linecap="butt" d="M214.5 61.5L214.5 291.5" fill-rule="nonzero"/><path stroke="#cccccc" stroke-width="1.0" stroke-linecap="butt" d="M280.5 61.5L280.5 291.5" fill-rule="nonzero"/><path stroke="#cccccc" stroke-width="1.0" stroke-linecap="butt" d="M345.5 61.5L345.5 291.5" fill-rule="nonzero"/><path stroke="#cccccc" stroke-width="1.0" stroke-linecap="butt" d="M410.5 61.5L410.5 291.5" fill-rule="nonzero"/><path stroke="#333333" stroke-width="1.0" stroke-linecap="butt" d="M84.5 291.5L410.5 291.5" fill-rule="nonzero"/><path stroke="#cccccc" stroke-width="1.0" stroke-linecap="butt" d="M84.5 234.5L410.5 234.5" fill-rule="nonzero"/><path stroke="#cccccc" stroke-width="1.0" stroke-linecap="butt" d="M84.5 176.5L410.5 176.5" fill-rule="nonzero"/><path stroke="#cccccc" stroke-width="1.0" stroke-linecap="butt" d="M84.5 118.5L410.5 118.5" fill-rule="nonzero"/><path stroke="#cccccc" stroke-width="1.0" stroke-linecap="butt" d="M84.5 61.5L410.5 61.5" fill-rule="nonzero"/><clipPath id="id_0"><path d="M84.1 61.166668L410.9 61.166668L410.9 291.9L84.1 291.9L84.1 61.166668Z" clip-rule="nonzero"/></clipPath><path stroke="#4285f4" stroke-width="2.0" stroke-linecap="butt" clip-path="url(#id_0)" d="M84.1 291.32318L116.78 290.40024L149.46 263.75052L182.14 250.82947L214.82 226.4871L247.5 200.8757L280.18 163.72763L312.86 149.53754L345.54 122.54173L378.22 121.38807L410.9 111.46653" fill-rule="nonzero"/><path fill="#000000" fill-opacity="0.0" clip-path="url(#id_0)" d="M87.1 291.32318C87.1 292.98 85.75685 294.32318 84.1 294.32318C82.443146 294.32318 81.1 292.98 81.1 291.32318C81.1 289.66632 82.443146 288.32318 84.1 288.32318C85.75685 288.32318 87.1 289.66632 87.1 291.32318Z" fill-rule="nonzero"/><path fill="#000000" fill-opacity="0.0" clip-path="url(#id_0)" d="M119.78 290.40024C119.78 292.0571 118.43685 293.40024 116.78 293.40024C115.123146 293.40024 113.78 292.0571 113.78 290.40024C113.78 288.74338 115.123146 287.40024 116.78 287.40024C118.43685 287.40024 119.78 288.74338 119.78 290.40024Z" fill-rule="nonzero"/><path fill="#000000" fill-opacity="0.0" clip-path="url(#id_0)" d="M152.46 263.75052C152.46 265.40738 151.11685 266.75052 149.46 266.75052C147.80315 266.75052 146.46 265.40738 146.46 263.75052C146.46 262.0937 147.80315 260.75052 149.46 260.75052C151.11685 260.75052 152.46 262.0937 152.46 263.75052Z" fill-rule="nonzero"/><path fill="#000000" fill-opacity="0.0" clip-path="url(#id_0)" d="M185.14 250.82947C185.14 252.48633 183.79686 253.82947 182.14 253.82947C180.48314 253.82947 179.14 252.48633 179.14 250.82947C179.14 249.1726 180.48314 247.82947 182.14 247.82947C183.79686 247.82947 185.14 249.1726 185.14 250.82947Z" fill-rule="nonzero"/><path fill="#000000" fill-opacity="0.0" clip-path="url(#id_0)" d="M217.82 226.4871C217.82 228.14395 216.47685 229.4871 214.82 229.4871C213.16315 229.4871 211.82 228.14395 211.82 226.4871C211.82 224.83025 213.16315 223.4871 214.82 223.4871C216.47685 223.4871 217.82 224.83025 217.82 226.4871Z" fill-rule="nonzero"/><path fill="#000000" fill-opacity="0.0" clip-path="url(#id_0)" d="M250.5 200.8757C250.5 202.53255 249.15686 203.8757 247.5 203.8757C245.84314 203.8757 244.5 202.53255 244.5 200.8757C244.5 199.21884 245.84314 197.8757 247.5 197.8757C249.15686 197.8757 250.5 199.21884 250.5 200.8757Z" fill-rule="nonzero"/><path fill="#000000" fill-opacity="0.0" clip-path="url(#id_0)" d="M283.18 163.72763C283.18 165.38449 281.83685 166.72763 280.18 166.72763C278.52313 166.72763 277.18 165.38449 277.18 163.72763C277.18 162.07079 278.52313 160.72763 280.18 160.72763C281.83685 160.72763 283.18 162.07079 283.18 163.72763Z" fill-rule="nonzero"/><path fill="#000000" fill-opacity="0.0" clip-path="url(#id_0)" d="M315.86 149.53754C315.86 151.19438 314.51685 152.53754 312.86 152.53754C311.20316 152.53754 309.86 151.19438 309.86 149.53754C309.86 147.88068 311.20316 146.53754 312.86 146.53754C314.51685 146.53754 315.86 147.88068 315.86 149.53754Z" fill-rule="nonzero"/><path fill="#000000" fill-opacity="0.0" clip-path="url(#id_0)" d="M348.54 122.54173C348.54 124.198586 347.19687 125.54173 345.54 125.54173C343.88315 125.54173 342.54 124.198586 342.54 122.54173C342.54 120.88488 343.88315 119.54173 345.54 119.54173C347.19687 119.54173 348.54 120.88488 348.54 122.54173Z" fill-rule="nonzero"/><path fill="#000000" fill-opacity="0.0" clip-path="url(#id_0)" d="M381.22 121.38807C381.22 123.04492 379.87686 124.38807 378.22 124.38807C376.56314 124.38807 375.22 123.04492 375.22 121.38807C375.22 119.73121 376.56314 118.38807 378.22 118.38807C379.87686 118.38807 381.22 119.73121 381.22 121.38807Z" fill-rule="nonzero"/><path fill="#000000" fill-opacity="0.0" clip-path="url(#id_0)" d="M413.9 111.46653C413.9 113.12339 412.55685 114.46653 410.9 114.46653C409.24313 114.46653 407.9 113.12339 407.9 111.46653C407.9 109.80968 409.24313 108.46653 410.9 108.46653C412.55685 108.46653 413.9 109.80968 413.9 111.46653Z" fill-rule="nonzero"/><path fill="#000000" d="M237.84375 340.9L237.84375 337.25937L234.53125 332.30624L235.92188 332.30624L237.60938 334.9Q238.07812 335.61874 238.48438 336.35312Q238.875 335.68124 239.42188 334.8375L241.09375 332.30624L242.40625 332.30624L238.98438 337.25937L238.98438 340.9L237.84375 340.9ZM247.54688 338.9L248.64062 339.025Q248.39062 339.97812 247.6875 340.50937Q246.98438 341.04062 245.90625 341.04062Q244.54688 341.04062 243.73438 340.19687Q242.9375 339.35312 242.9375 337.8375Q242.9375 336.275 243.75 335.41562Q244.5625 334.54062 245.84375 334.54062Q247.09375 334.54062 247.875 335.38437Q248.67188 336.22812 248.67188 337.775Q248.67188 337.86874 248.67188 338.05624L244.03125 338.05624Q244.09375 339.0875 244.60938 339.63437Q245.125 340.16562 245.90625 340.16562Q246.48438 340.16562 246.89062 339.86874Q247.3125 339.55624 247.54688 338.9ZM244.09375 337.19687L247.5625 337.19687Q247.5 336.4 247.17188 336.00937Q246.65625 335.4 245.85938 335.4Q245.125 335.4 244.625 335.88437Q244.14062 336.36874 244.09375 337.19687ZM254.35938 340.13437Q253.76562 340.63437 253.21875 340.8375Q252.6875 341.04062 252.0625 341.04062Q251.03125 341.04062 250.48438 340.54062Q249.9375 340.04062 249.9375 339.25937Q249.9375 338.80624 250.14062 338.43124Q250.34375 338.04062 250.6875 337.82187Q251.03125 337.5875 251.45312 337.47812Q251.75 337.38437 252.39062 337.30624Q253.65625 337.16562 254.26562 336.94687Q254.26562 336.72812 254.26562 336.68124Q254.26562 336.025 253.96875 335.75937Q253.5625 335.41562 252.76562 335.41562Q252.03125 335.41562 251.67188 335.68124Q251.3125 335.93124 251.14062 336.5875L250.10938 336.44687Q250.25 335.79062 250.57812 335.38437Q250.90625 334.97812 251.51562 334.75937Q252.125 334.54062 252.92188 334.54062Q253.71875 334.54062 254.21875 334.72812Q254.71875 334.91562 254.95312 335.19687Q255.1875 335.47812 255.28125 335.91562Q255.32812 336.18124 255.32812 336.88437L255.32812 338.29062Q255.32812 339.75937 255.39062 340.15Q255.46875 340.54062 255.67188 340.9L254.5625 340.9Q254.40625 340.57187 254.35938 340.13437ZM254.26562 337.775Q253.6875 338.00937 252.54688 338.18124Q251.89062 338.275 251.625 338.4Q251.35938 338.50937 251.20312 338.72812Q251.0625 338.94687 251.0625 339.22812Q251.0625 339.65 251.375 339.93124Q251.70312 340.2125 252.3125 340.2125Q252.92188 340.2125 253.39062 339.94687Q253.875 339.68124 254.09375 339.2125Q254.26562 338.85312 254.26562 338.16562L254.26562 337.775ZM257.28125 340.9L257.28125 334.68124L258.23438 334.68124L258.23438 335.61874Q258.59375 334.9625 258.89062 334.75937Q259.20312 334.54062 259.57812 334.54062Q260.10938 334.54062 260.65625 334.86874L260.29688 335.85312Q259.90625 335.61874 259.53125 335.61874Q259.17188 335.61874 258.89062 335.8375Q258.625 336.04062 258.51562 336.41562Q258.32812 336.97812 258.32812 337.63437L258.32812 340.9L257.28125 340.9Z" fill-rule="nonzero"/><path fill="#000000" d="M26.08437 225.97083L26.381245 224.84583Q27.77187 225.2052 28.506245 226.12708Q29.24062 227.04895 29.24062 228.3927Q29.24062 229.78333 28.67812 230.65833Q28.11562 231.53333 27.05312 231.98645Q25.974995 232.43958 24.74062 232.43958Q23.39687 232.43958 22.39687 231.92395Q21.39687 231.40833 20.881245 230.47083Q20.36562 229.5177 20.36562 228.37708Q20.36562 227.09583 21.02187 226.22083Q21.67812 225.3302 22.86562 224.98645L23.131245 226.11145Q22.193745 226.40833 21.77187 226.98645Q21.33437 227.54895 21.33437 228.40833Q21.33437 229.3927 21.818745 230.06458Q22.287495 230.72083 23.08437 231.00208Q23.881245 231.2677 24.74062 231.2677Q25.83437 231.2677 26.64687 230.9552Q27.45937 230.62708 27.86562 229.9552Q28.27187 229.28333 28.27187 228.48645Q28.27187 227.53333 27.724995 226.87708Q27.17812 226.2052 26.08437 225.97083ZM29.099995 219.15833L28.17812 219.15833Q29.24062 219.8927 29.24062 221.1427Q29.24062 221.68958 29.037495 222.17395Q28.818745 222.6427 28.506245 222.87708Q28.17812 223.11145 27.70937 223.2052Q27.412495 223.2677 26.724995 223.2677L22.881245 223.2677L22.881245 222.2052L26.33437 222.2052Q27.14687 222.2052 27.443745 222.1427Q27.849995 222.04895 28.099995 221.73645Q28.33437 221.40833 28.33437 220.92395Q28.33437 220.4552 28.099995 220.04895Q27.849995 219.62708 27.42812 219.4552Q27.006245 219.2677 26.20937 219.2677L22.881245 219.2677L22.881245 218.22083L29.099995 218.22083L29.099995 219.15833ZM27.24062 216.65833L27.08437 215.62708Q27.70937 215.53333 28.037495 215.1427Q28.36562 214.73645 28.36562 214.00208Q28.36562 213.28333 28.08437 212.93958Q27.787495 212.5802 27.381245 212.5802Q27.02187 212.5802 26.818745 212.8927Q26.67812 213.11145 26.45937 213.97083Q26.162495 215.12708 25.95937 215.5802Q25.74062 216.0177 25.36562 216.25208Q24.99062 216.48645 24.52187 216.48645Q24.11562 216.48645 23.756245 216.29895Q23.39687 216.11145 23.162495 215.78333Q22.99062 215.53333 22.86562 215.11145Q22.74062 214.68958 22.74062 214.18958Q22.74062 213.47083 22.95937 212.92395Q23.162495 212.36145 23.52187 212.09583Q23.881245 211.8302 24.474995 211.73645L24.61562 212.7677Q24.14687 212.8302 23.881245 213.17395Q23.599995 213.50208 23.599995 214.12708Q23.599995 214.84583 23.849995 215.15833Q24.08437 215.47083 24.412495 215.47083Q24.61562 215.47083 24.77187 215.34583Q24.943745 215.2052 25.05312 214.93958Q25.11562 214.78333 25.318745 214.00208Q25.631245 212.87708 25.818745 212.43958Q26.006245 212.00208 26.36562 211.75208Q26.724995 211.50208 27.27187 211.50208Q27.80312 211.50208 28.27187 211.81458Q28.724995 212.11145 28.99062 212.68958Q29.24062 213.2677 29.24062 214.00208Q29.24062 215.22083 28.74062 215.86145Q28.224995 216.48645 27.24062 216.65833ZM28.162495 207.93958L29.08437 207.78333Q29.17812 208.23645 29.17812 208.5802Q29.17812 209.15833 29.006245 209.47083Q28.818745 209.78333 28.52187 209.92395Q28.224995 210.04895 27.27187 210.04895L23.693745 210.04895L23.693745 210.81458L22.881245 210.81458L22.881245 210.04895L21.33437 210.04895L20.70937 209.00208L22.881245 209.00208L22.881245 207.93958L23.693745 207.93958L23.693745 209.00208L27.33437 209.00208Q27.787495 209.00208 27.912495 208.9552Q28.037495 208.8927 28.11562 208.7677Q28.193745 208.6427 28.193745 208.40833Q28.193745 208.22083 28.162495 207.93958ZM25.99062 207.62708Q24.256245 207.62708 23.42812 206.67395Q22.74062 205.87708 22.74062 204.72083Q22.74062 203.43958 23.58437 202.62708Q24.412495 201.79895 25.89687 201.79895Q27.099995 201.79895 27.787495 202.15833Q28.474995 202.5177 28.86562 203.22083Q29.24062 203.90833 29.24062 204.72083Q29.24062 206.0177 28.412495 206.8302Q27.568745 207.62708 25.99062 207.62708ZM25.99062 206.54895Q27.17812 206.54895 27.77187 206.03333Q28.36562 205.50208 28.36562 204.72083Q28.36562 203.92395 27.77187 203.40833Q27.17812 202.8927 25.95937 202.8927Q24.80312 202.8927 24.20937 203.42395Q23.61562 203.93958 23.61562 204.72083Q23.61562 205.50208 24.20937 206.03333Q24.787495 206.54895 25.99062 206.54895ZM29.099995 200.23645L22.881245 200.23645L22.881245 199.29895L23.756245 199.29895Q23.287495 199.00208 23.02187 198.5177Q22.74062 198.03333 22.74062 197.40833Q22.74062 196.72083 23.02187 196.28333Q23.30312 195.8302 23.818745 195.65833Q22.74062 194.90833 22.74062 193.73645Q22.74062 192.79895 23.256245 192.31458Q23.756245 191.81458 24.83437 191.81458L29.099995 191.81458L29.099995 192.86145L25.17812 192.86145Q24.55312 192.86145 24.27187 192.97083Q23.99062 193.06458 23.818745 193.3302Q23.64687 193.59583 23.64687 193.97083Q23.64687 194.62708 24.08437 195.06458Q24.52187 195.48645 25.49062 195.48645L29.099995 195.48645L29.099995 196.54895L25.05312 196.54895Q24.349995 196.54895 24.006245 196.81458Q23.64687 197.06458 23.64687 197.6427Q23.64687 198.09583 23.881245 198.47083Q24.11562 198.84583 24.568745 199.0177Q25.02187 199.18958 25.86562 199.18958L29.099995 199.18958L29.099995 200.23645ZM27.099995 185.98645L27.224995 184.8927Q28.17812 185.1427 28.70937 185.84583Q29.24062 186.54895 29.24062 187.62708Q29.24062 188.98645 28.39687 189.79895Q27.55312 190.59583 26.037495 190.59583Q24.474995 190.59583 23.61562 189.78333Q22.74062 188.97083 22.74062 187.68958Q22.74062 186.43958 23.58437 185.65833Q24.42812 184.86145 25.974995 184.86145Q26.068745 184.86145 26.256245 184.86145L26.256245 189.50208Q27.287495 189.43958 27.83437 188.92395Q28.36562 188.40833 28.36562 187.62708Q28.36562 187.04895 28.068745 186.6427Q27.756245 186.22083 27.099995 185.98645ZM25.39687 189.43958L25.39687 185.97083Q24.599995 186.03333 24.20937 186.36145Q23.599995 186.87708 23.599995 187.67395Q23.599995 188.40833 24.08437 188.90833Q24.568745 189.3927 25.39687 189.43958ZM29.099995 183.25208L22.881245 183.25208L22.881245 182.29895L23.818745 182.29895Q23.162495 181.93958 22.95937 181.6427Q22.74062 181.3302 22.74062 180.9552Q22.74062 180.42395 23.068745 179.87708L24.05312 180.23645Q23.818745 180.62708 23.818745 181.00208Q23.818745 181.36145 24.037495 181.6427Q24.24062 181.90833 24.61562 182.0177Q25.17812 182.2052 25.83437 182.2052L29.099995 182.2052L29.099995 183.25208ZM29.099995 176.11145L20.506245 176.11145L20.506245 174.9552L27.256245 170.43958L20.506245 170.43958L20.506245 169.34583L29.099995 169.34583L29.099995 170.5177L22.349995 175.03333L29.099995 175.03333L29.099995 176.11145ZM29.099995 163.15833L28.17812 163.15833Q29.24062 163.8927 29.24062 165.1427Q29.24062 165.68958 29.037495 166.17395Q28.818745 166.6427 28.506245 166.87708Q28.17812 167.11145 27.70937 167.2052Q27.412495 167.2677 26.724995 167.2677L22.881245 167.2677L22.881245 166.2052L26.33437 166.2052Q27.14687 166.2052 27.443745 166.1427Q27.849995 166.04895 28.099995 165.73645Q28.33437 165.40833 28.33437 164.92395Q28.33437 164.4552 28.099995 164.04895Q27.849995 163.62708 27.42812 163.4552Q27.006245 163.2677 26.20937 163.2677L22.881245 163.2677L22.881245 162.22083L29.099995 162.22083L29.099995 163.15833ZM29.099995 160.23645L22.881245 160.23645L22.881245 159.29895L23.756245 159.29895Q23.287495 159.00208 23.02187 158.5177Q22.74062 158.03333 22.74062 157.40833Q22.74062 156.72083 23.02187 156.28333Q23.30312 155.8302 23.818745 155.65833Q22.74062 154.90833 22.74062 153.73645Q22.74062 152.79895 23.256245 152.31458Q23.756245 151.81458 24.83437 151.81458L29.099995 151.81458L29.099995 152.86145L25.17812 152.86145Q24.55312 152.86145 24.27187 152.97083Q23.99062 153.06458 23.818745 153.3302Q23.64687 153.59583 23.64687 153.97083Q23.64687 154.62708 24.08437 155.06458Q24.52187 155.48645 25.49062 155.48645L29.099995 155.48645L29.099995 156.54895L25.05312 156.54895Q24.349995 156.54895 24.006245 156.81458Q23.64687 157.06458 23.64687 157.6427Q23.64687 158.09583 23.881245 158.47083Q24.11562 158.84583 24.568745 159.0177Q25.02187 159.18958 25.86562 159.18958L29.099995 159.18958L29.099995 160.23645ZM29.099995 149.2677L29.099995 150.25208L20.506245 150.25208L20.506245 149.18958L23.568745 149.18958Q22.74062 148.5177 22.74062 147.48645Q22.74062 146.90833 22.974995 146.40833Q23.193745 145.8927 23.61562 145.56458Q24.037495 145.22083 24.631245 145.03333Q25.224995 144.84583 25.89687 144.84583Q27.49062 144.84583 28.36562 145.6427Q29.24062 146.43958 29.24062 147.53333Q29.24062 148.6427 28.318745 149.2677L29.099995 149.2677ZM25.943745 149.28333Q27.05312 149.28333 27.55312 148.97083Q28.36562 148.47083 28.36562 147.62708Q28.36562 146.93958 27.77187 146.43958Q27.17812 145.92395 25.974995 145.92395Q24.756245 145.92395 24.17812 146.40833Q23.599995 146.8927 23.599995 147.5802Q23.599995 148.2677 24.20937 148.78333Q24.80312 149.28333 25.943745 149.28333ZM27.099995 138.98645L27.224995 137.8927Q28.17812 138.1427 28.70937 138.84583Q29.24062 139.54895 29.24062 140.62708Q29.24062 141.98645 28.39687 142.79895Q27.55312 143.59583 26.037495 143.59583Q24.474995 143.59583 23.61562 142.78333Q22.74062 141.97083 22.74062 140.68958Q22.74062 139.43958 23.58437 138.65833Q24.42812 137.86145 25.974995 137.86145Q26.068745 137.86145 26.256245 137.86145L26.256245 142.50208Q27.287495 142.43958 27.83437 141.92395Q28.36562 141.40833 28.36562 140.62708Q28.36562 140.04895 28.068745 139.6427Q27.756245 139.22083 27.099995 138.98645ZM25.39687 142.43958L25.39687 138.97083Q24.599995 139.03333 24.20937 139.36145Q23.599995 139.87708 23.599995 140.67395Q23.599995 141.40833 24.08437 141.90833Q24.568745 142.3927 25.39687 142.43958ZM29.099995 136.25208L22.881245 136.25208L22.881245 135.29895L23.818745 135.29895Q23.162495 134.93958 22.95937 134.6427Q22.74062 134.3302 22.74062 133.9552Q22.74062 133.42395 23.068745 132.87708L24.05312 133.23645Q23.818745 133.62708 23.818745 134.00208Q23.818745 134.36145 24.037495 134.6427Q24.24062 134.90833 24.61562 135.0177Q25.17812 135.2052 25.83437 135.2052L29.099995 135.2052L29.099995 136.25208Z" fill-rule="nonzero"/><path fill="#000000" d="M71.6 291.66562Q71.6 290.13437 71.9125 289.2125Q72.225 288.275 72.83437 287.775Q73.45937 287.275 74.39687 287.275Q75.08437 287.275 75.6 287.55624Q76.13125 287.8375 76.475 288.36874Q76.81875 288.88437 77.00625 289.63437Q77.19375 290.38437 77.19375 291.66562Q77.19375 293.18124 76.88125 294.10312Q76.58437 295.025 75.95937 295.54062Q75.35 296.04062 74.39687 296.04062Q73.1625 296.04062 72.44375 295.15Q71.6 294.0875 71.6 291.66562ZM72.67812 291.66562Q72.67812 293.775 73.17812 294.47812Q73.67812 295.18124 74.39687 295.18124Q75.13125 295.18124 75.61562 294.47812Q76.11562 293.775 76.11562 291.66562Q76.11562 289.54062 75.61562 288.85312Q75.13125 288.15 74.38125 288.15Q73.6625 288.15 73.225 288.75937Q72.67812 289.54062 72.67812 291.66562Z" fill-rule="nonzero"/><path fill="#000000" d="M57.6 235.96666L58.709373 235.87291Q58.834373 236.68541 59.271873 237.09166Q59.725 237.49791 60.365623 237.49791Q61.115623 237.49791 61.646873 236.91978Q62.178123 236.34166 62.178123 235.40416Q62.178123 234.49791 61.6625 233.98228Q61.1625 233.45103 60.334373 233.45103Q59.834373 233.45103 59.4125 233.68541Q59.00625 233.91978 58.771873 234.27916L57.7875 234.15416L58.615623 229.74791L62.896873 229.74791L62.896873 230.74791L59.459373 230.74791L59.00625 233.06041Q59.771873 232.51353 60.615623 232.51353Q61.740623 232.51353 62.50625 233.29478Q63.2875 234.07603 63.2875 235.31041Q63.2875 236.46666 62.615623 237.32603Q61.7875 238.35728 60.365623 238.35728Q59.19375 238.35728 58.44375 237.70103Q57.709373 237.04478 57.6 235.96666ZM64.6 233.98228Q64.6 232.45103 64.9125 231.52916Q65.225 230.59166 65.83437 230.09166Q66.45937 229.59166 67.39687 229.59166Q68.08437 229.59166 68.6 229.87291Q69.13125 230.15416 69.475 230.68541Q69.81875 231.20103 70.00625 231.95103Q70.19375 232.70103 70.19375 233.98228Q70.19375 235.49791 69.88125 236.41978Q69.58437 237.34166 68.95937 237.85728Q68.35 238.35728 67.39687 238.35728Q66.1625 238.35728 65.44375 237.46666Q64.6 236.40416 64.6 233.98228ZM65.67812 233.98228Q65.67812 236.09166 66.17812 236.79478Q66.67812 237.49791 67.39687 237.49791Q68.13125 237.49791 68.61562 236.79478Q69.11562 236.09166 69.11562 233.98228Q69.11562 231.85728 68.61562 231.16978Q68.13125 230.46666 67.38125 230.46666Q66.6625 230.46666 66.225 231.07603Q65.67812 231.85728 65.67812 233.98228ZM71.6 233.98228Q71.6 232.45103 71.9125 231.52916Q72.225 230.59166 72.83437 230.09166Q73.45937 229.59166 74.39687 229.59166Q75.08437 229.59166 75.6 229.87291Q76.13125 230.15416 76.475 230.68541Q76.81875 231.20103 77.00625 231.95103Q77.19375 232.70103 77.19375 233.98228Q77.19375 235.49791 76.88125 236.41978Q76.58437 237.34166 75.95937 237.85728Q75.35 238.35728 74.39687 238.35728Q73.1625 238.35728 72.44375 237.46666Q71.6 236.40416 71.6 233.98228ZM72.67812 233.98228Q72.67812 236.09166 73.17812 236.79478Q73.67812 237.49791 74.39687 237.49791Q75.13125 237.49791 75.61562 236.79478Q76.11562 236.09166 76.11562 233.98228Q76.11562 231.85728 75.61562 231.16978Q75.13125 230.46666 74.38125 230.46666Q73.6625 230.46666 73.225 231.07603Q72.67812 231.85728 72.67812 233.98228Z" fill-rule="nonzero"/><path fill="#000000" d="M54.56875 180.53334L53.521873 180.53334L53.521873 173.81459Q53.13125 174.17397 52.50625 174.54897Q51.896873 174.90834 51.4125 175.08022L51.4125 174.06459Q52.2875 173.64272 52.94375 173.06459Q53.615623 172.47084 53.896873 171.90834L54.56875 171.90834L54.56875 180.53334ZM57.6 176.29897Q57.6 174.76772 57.9125 173.84584Q58.225 172.90834 58.834373 172.40834Q59.459373 171.90834 60.396873 171.90834Q61.084373 171.90834 61.6 172.18959Q62.13125 172.47084 62.475 173.00209Q62.81875 173.51772 63.00625 174.26772Q63.19375 175.01772 63.19375 176.29897Q63.19375 177.81459 62.88125 178.73647Q62.584373 179.65834 61.959373 180.17397Q61.35 180.67397 60.396873 180.67397Q59.1625 180.67397 58.44375 179.78334Q57.6 178.72084 57.6 176.29897ZM58.678123 176.29897Q58.678123 178.40834 59.178123 179.11147Q59.678123 179.81459 60.396873 179.81459Q61.13125 179.81459 61.615623 179.11147Q62.115623 178.40834 62.115623 176.29897Q62.115623 174.17397 61.615623 173.48647Q61.13125 172.78334 60.38125 172.78334Q59.6625 172.78334 59.225 173.39272Q58.678123 174.17397 58.678123 176.29897ZM64.6 176.29897Q64.6 174.76772 64.9125 173.84584Q65.225 172.90834 65.83437 172.40834Q66.45937 171.90834 67.39687 171.90834Q68.08437 171.90834 68.6 172.18959Q69.13125 172.47084 69.475 173.00209Q69.81875 173.51772 70.00625 174.26772Q70.19375 175.01772 70.19375 176.29897Q70.19375 177.81459 69.88125 178.73647Q69.58437 179.65834 68.95937 180.17397Q68.35 180.67397 67.39687 180.67397Q66.1625 180.67397 65.44375 179.78334Q64.6 178.72084 64.6 176.29897ZM65.67812 176.29897Q65.67812 178.40834 66.17812 179.11147Q66.67812 179.81459 67.39687 179.81459Q68.13125 179.81459 68.61562 179.11147Q69.11562 178.40834 69.11562 176.29897Q69.11562 174.17397 68.61562 173.48647Q68.13125 172.78334 67.38125 172.78334Q66.6625 172.78334 66.225 173.39272Q65.67812 174.17397 65.67812 176.29897ZM71.6 176.29897Q71.6 174.76772 71.9125 173.84584Q72.225 172.90834 72.83437 172.40834Q73.45937 171.90834 74.39687 171.90834Q75.08437 171.90834 75.6 172.18959Q76.13125 172.47084 76.475 173.00209Q76.81875 173.51772 77.00625 174.26772Q77.19375 175.01772 77.19375 176.29897Q77.19375 177.81459 76.88125 178.73647Q76.58437 179.65834 75.95937 180.17397Q75.35 180.67397 74.39687 180.67397Q73.1625 180.67397 72.44375 179.78334Q71.6 178.72084 71.6 176.29897ZM72.67812 176.29897Q72.67812 178.40834 73.17812 179.11147Q73.67812 179.81459 74.39687 179.81459Q75.13125 179.81459 75.61562 179.11147Q76.11562 178.40834 76.11562 176.29897Q76.11562 174.17397 75.61562 173.48647Q75.13125 172.78334 74.38125 172.78334Q73.6625 172.78334 73.225 173.39272Q72.67812 174.17397 72.67812 176.29897Z" fill-rule="nonzero"/><path fill="#000000" d="M54.56875 122.85L53.521873 122.85L53.521873 116.13125Q53.13125 116.49062 52.50625 116.86562Q51.896873 117.225 51.4125 117.39687L51.4125 116.38125Q52.2875 115.95937 52.94375 115.38125Q53.615623 114.7875 53.896873 114.225L54.56875 114.225L54.56875 122.85ZM57.6 120.6L58.709373 120.50625Q58.834373 121.31875 59.271873 121.725Q59.725 122.13125 60.365623 122.13125Q61.115623 122.13125 61.646873 121.55312Q62.178123 120.975 62.178123 120.0375Q62.178123 119.13125 61.6625 118.61562Q61.1625 118.08437 60.334373 118.08437Q59.834373 118.08437 59.4125 118.31875Q59.00625 118.55312 58.771873 118.9125L57.7875 118.7875L58.615623 114.38125L62.896873 114.38125L62.896873 115.38125L59.459373 115.38125L59.00625 117.69375Q59.771873 117.14687 60.615623 117.14687Q61.740623 117.14687 62.50625 117.92812Q63.2875 118.70937 63.2875 119.94375Q63.2875 121.1 62.615623 121.95937Q61.7875 122.99062 60.365623 122.99062Q59.19375 122.99062 58.44375 122.33437Q57.709373 121.67812 57.6 120.6ZM64.6 118.61562Q64.6 117.08437 64.9125 116.1625Q65.225 115.225 65.83437 114.725Q66.45937 114.225 67.39687 114.225Q68.08437 114.225 68.6 114.50625Q69.13125 114.7875 69.475 115.31875Q69.81875 115.83437 70.00625 116.58437Q70.19375 117.33437 70.19375 118.61562Q70.19375 120.13125 69.88125 121.05312Q69.58437 121.975 68.95937 122.49062Q68.35 122.99062 67.39687 122.99062Q66.1625 122.99062 65.44375 122.1Q64.6 121.0375 64.6 118.61562ZM65.67812 118.61562Q65.67812 120.725 66.17812 121.42812Q66.67812 122.13125 67.39687 122.13125Q68.13125 122.13125 68.61562 121.42812Q69.11562 120.725 69.11562 118.61562Q69.11562 116.49062 68.61562 115.80312Q68.13125 115.1 67.38125 115.1Q66.6625 115.1 66.225 115.70937Q65.67812 116.49062 65.67812 118.61562ZM71.6 118.61562Q71.6 117.08437 71.9125 116.1625Q72.225 115.225 72.83437 114.725Q73.45937 114.225 74.39687 114.225Q75.08437 114.225 75.6 114.50625Q76.13125 114.7875 76.475 115.31875Q76.81875 115.83437 77.00625 116.58437Q77.19375 117.33437 77.19375 118.61562Q77.19375 120.13125 76.88125 121.05312Q76.58437 121.975 75.95937 122.49062Q75.35 122.99062 74.39687 122.99062Q73.1625 122.99062 72.44375 122.1Q71.6 121.0375 71.6 118.61562ZM72.67812 118.61562Q72.67812 120.725 73.17812 121.42812Q73.67812 122.13125 74.39687 122.13125Q75.13125 122.13125 75.61562 121.42812Q76.11562 120.725 76.11562 118.61562Q76.11562 116.49062 75.61562 115.80312Q75.13125 115.1 74.38125 115.1Q73.6625 115.1 73.225 115.70937Q72.67812 116.49062 72.67812 118.61562Z" fill-rule="nonzero"/><path fill="#000000" d="M56.146873 64.15104L56.146873 65.166664L50.459373 65.166664Q50.459373 64.791664 50.584373 64.43229Q50.803123 63.854164 51.271873 63.291664Q51.75625 62.729164 52.6625 61.99479Q54.06875 60.83854 54.553123 60.166664Q55.053123 59.49479 55.053123 58.90104Q55.053123 58.27604 54.6 57.854164Q54.146873 57.416664 53.428123 57.416664Q52.6625 57.416664 52.209373 57.86979Q51.75625 58.322914 51.740623 59.135414L50.6625 59.02604Q50.771873 57.80729 51.490623 57.18229Q52.225 56.541664 53.459373 56.541664Q54.69375 56.541664 55.4125 57.229164Q56.13125 57.916664 56.13125 58.93229Q56.13125 59.447914 55.9125 59.947914Q55.709373 60.43229 55.209373 60.99479Q54.725 61.541664 53.6 62.49479Q52.646873 63.291664 52.365623 63.58854Q52.1 63.86979 51.928123 64.15104L56.146873 64.15104ZM57.6 60.93229Q57.6 59.40104 57.9125 58.479164Q58.225 57.541664 58.834373 57.041664Q59.459373 56.541664 60.396873 56.541664Q61.084373 56.541664 61.6 56.822914Q62.13125 57.104164 62.475 57.635414Q62.81875 58.15104 63.00625 58.90104Q63.19375 59.65104 63.19375 60.93229Q63.19375 62.447914 62.88125 63.36979Q62.584373 64.291664 61.959373 64.80729Q61.35 65.30729 60.396873 65.30729Q59.1625 65.30729 58.44375 64.416664Q57.6 63.354164 57.6 60.93229ZM58.678123 60.93229Q58.678123 63.041664 59.178123 63.74479Q59.678123 64.447914 60.396873 64.447914Q61.13125 64.447914 61.615623 63.74479Q62.115623 63.041664 62.115623 60.93229Q62.115623 58.80729 61.615623 58.11979Q61.13125 57.416664 60.38125 57.416664Q59.6625 57.416664 59.225 58.02604Q58.678123 58.80729 58.678123 60.93229ZM64.6 60.93229Q64.6 59.40104 64.9125 58.479164Q65.225 57.541664 65.83437 57.041664Q66.45937 56.541664 67.39687 56.541664Q68.08437 56.541664 68.6 56.822914Q69.13125 57.104164 69.475 57.635414Q69.81875 58.15104 70.00625 58.90104Q70.19375 59.65104 70.19375 60.93229Q70.19375 62.447914 69.88125 63.36979Q69.58437 64.291664 68.95937 64.80729Q68.35 65.30729 67.39687 65.30729Q66.1625 65.30729 65.44375 64.416664Q64.6 63.354164 64.6 60.93229ZM65.67812 60.93229Q65.67812 63.041664 66.17812 63.74479Q66.67812 64.447914 67.39687 64.447914Q68.13125 64.447914 68.61562 63.74479Q69.11562 63.041664 69.11562 60.93229Q69.11562 58.80729 68.61562 58.11979Q68.13125 57.416664 67.38125 57.416664Q66.6625 57.416664 66.225 58.02604Q65.67812 58.80729 65.67812 60.93229ZM71.6 60.93229Q71.6 59.40104 71.9125 58.479164Q72.225 57.541664 72.83437 57.041664Q73.45937 56.541664 74.39687 56.541664Q75.08437 56.541664 75.6 56.822914Q76.13125 57.104164 76.475 57.635414Q76.81875 58.15104 77.00625 58.90104Q77.19375 59.65104 77.19375 60.93229Q77.19375 62.447914 76.88125 63.36979Q76.58437 64.291664 75.95937 64.80729Q75.35 65.30729 74.39687 65.30729Q73.1625 65.30729 72.44375 64.416664Q71.6 63.354164 71.6 60.93229ZM72.67812 60.93229Q72.67812 63.041664 73.17812 63.74479Q73.67812 64.447914 74.39687 64.447914Q75.13125 64.447914 75.61562 63.74479Q76.11562 63.041664 76.11562 60.93229Q76.11562 58.80729 75.61562 58.11979Q75.13125 57.416664 74.38125 57.416664Q73.6625 57.416664 73.225 58.02604Q72.67812 58.80729 72.67812 60.93229Z" fill-rule="nonzero"/><path fill="#000000" d="M76.14687 307.88437L76.14687 308.9L70.45937 308.9Q70.45937 308.525 70.58437 308.16562Q70.80312 307.5875 71.27187 307.025Q71.75625 306.4625 72.6625 305.72812Q74.06875 304.57187 74.55312 303.9Q75.05312 303.22812 75.05312 302.63437Q75.05312 302.00937 74.6 301.5875Q74.14687 301.15 73.42812 301.15Q72.6625 301.15 72.20937 301.60312Q71.75625 302.05624 71.74062 302.86874L70.6625 302.75937Q70.77187 301.54062 71.49062 300.91562Q72.225 300.275 73.45937 300.275Q74.69375 300.275 75.4125 300.9625Q76.13125 301.65 76.13125 302.66562Q76.13125 303.18124 75.9125 303.68124Q75.70937 304.16562 75.20937 304.72812Q74.725 305.275 73.6 306.22812Q72.64687 307.025 72.36562 307.32187Q72.1 307.60312 71.92812 307.88437L76.14687 307.88437ZM77.6 304.66562Q77.6 303.13437 77.9125 302.2125Q78.225 301.275 78.83437 300.775Q79.45937 300.275 80.39687 300.275Q81.08437 300.275 81.6 300.55624Q82.13125 300.8375 82.475 301.36874Q82.81875 301.88437 83.00625 302.63437Q83.19375 303.38437 83.19375 304.66562Q83.19375 306.18124 82.88125 307.10312Q82.58437 308.025 81.95937 308.54062Q81.35 309.04062 80.39687 309.04062Q79.1625 309.04062 78.44375 308.15Q77.6 307.0875 77.6 304.66562ZM78.67812 304.66562Q78.67812 306.775 79.17812 307.47812Q79.67812 308.18124 80.39687 308.18124Q81.13125 308.18124 81.61562 307.47812Q82.11562 306.775 82.11562 304.66562Q82.11562 302.54062 81.61562 301.85312Q81.13125 301.15 80.38125 301.15Q79.6625 301.15 79.225 301.75937Q78.67812 302.54062 78.67812 304.66562ZM88.56875 308.9L87.52187 308.9L87.52187 302.18124Q87.13125 302.54062 86.50625 302.91562Q85.89687 303.275 85.4125 303.44687L85.4125 302.43124Q86.2875 302.00937 86.94375 301.43124Q87.61562 300.8375 87.89687 300.275L88.56875 300.275L88.56875 308.9ZM91.6 304.66562Q91.6 303.13437 91.9125 302.2125Q92.225 301.275 92.83437 300.775Q93.45937 300.275 94.39687 300.275Q95.08437 300.275 95.6 300.55624Q96.13125 300.8375 96.475 301.36874Q96.81875 301.88437 97.00625 302.63437Q97.19375 303.38437 97.19375 304.66562Q97.19375 306.18124 96.88125 307.10312Q96.58437 308.025 95.95937 308.54062Q95.35 309.04062 94.39687 309.04062Q93.1625 309.04062 92.44375 308.15Q91.6 307.0875 91.6 304.66562ZM92.67812 304.66562Q92.67812 306.775 93.17812 307.47812Q93.67812 308.18124 94.39687 308.18124Q95.13125 308.18124 95.61562 307.47812Q96.11562 306.775 96.11562 304.66562Q96.11562 302.54062 95.61562 301.85312Q95.13125 301.15 94.38125 301.15Q93.6625 301.15 93.225 301.75937Q92.67812 302.54062 92.67812 304.66562Z" fill-rule="nonzero"/><path fill="#000000" d="M141.50688 307.88437L141.50688 308.9L135.81938 308.9Q135.81938 308.525 135.94438 308.16562Q136.16313 307.5875 136.63188 307.025Q137.11626 306.4625 138.0225 305.72812Q139.42876 304.57187 139.91313 303.9Q140.41313 303.22812 140.41313 302.63437Q140.41313 302.00937 139.96 301.5875Q139.50688 301.15 138.78813 301.15Q138.0225 301.15 137.56938 301.60312Q137.11626 302.05624 137.10063 302.86874L136.0225 302.75937Q136.13188 301.54062 136.85063 300.91562Q137.585 300.275 138.81938 300.275Q140.05376 300.275 140.7725 300.9625Q141.49126 301.65 141.49126 302.66562Q141.49126 303.18124 141.2725 303.68124Q141.06938 304.16562 140.56938 304.72812Q140.085 305.275 138.96 306.22812Q138.00688 307.025 137.72563 307.32187Q137.46 307.60312 137.28813 307.88437L141.50688 307.88437ZM142.96 304.66562Q142.96 303.13437 143.2725 302.2125Q143.585 301.275 144.19438 300.775Q144.81938 300.275 145.75688 300.275Q146.44438 300.275 146.96 300.55624Q147.49126 300.8375 147.835 301.36874Q148.17876 301.88437 148.36626 302.63437Q148.55376 303.38437 148.55376 304.66562Q148.55376 306.18124 148.24126 307.10312Q147.94438 308.025 147.31938 308.54062Q146.71 309.04062 145.75688 309.04062Q144.5225 309.04062 143.80376 308.15Q142.96 307.0875 142.96 304.66562ZM144.03813 304.66562Q144.03813 306.775 144.53813 307.47812Q145.03813 308.18124 145.75688 308.18124Q146.49126 308.18124 146.97563 307.47812Q147.47563 306.775 147.47563 304.66562Q147.47563 302.54062 146.97563 301.85312Q146.49126 301.15 145.74126 301.15Q145.0225 301.15 144.585 301.75937Q144.03813 302.54062 144.03813 304.66562ZM153.92876 308.9L152.88188 308.9L152.88188 302.18124Q152.49126 302.54062 151.86626 302.91562Q151.25688 303.275 150.7725 303.44687L150.7725 302.43124Q151.6475 302.00937 152.30376 301.43124Q152.97563 300.8375 153.25688 300.275L153.92876 300.275L153.92876 308.9ZM162.50688 307.88437L162.50688 308.9L156.81938 308.9Q156.81938 308.525 156.94438 308.16562Q157.16313 307.5875 157.63188 307.025Q158.11626 306.4625 159.0225 305.72812Q160.42876 304.57187 160.91313 303.9Q161.41313 303.22812 161.41313 302.63437Q161.41313 302.00937 160.96 301.5875Q160.50688 301.15 159.78813 301.15Q159.0225 301.15 158.56938 301.60312Q158.11626 302.05624 158.10063 302.86874L157.0225 302.75937Q157.13188 301.54062 157.85063 300.91562Q158.585 300.275 159.81938 300.275Q161.05376 300.275 161.7725 300.9625Q162.49126 301.65 162.49126 302.66562Q162.49126 303.18124 162.2725 303.68124Q162.06938 304.16562 161.56938 304.72812Q161.085 305.275 159.96 306.22812Q159.00688 307.025 158.72563 307.32187Q158.46 307.60312 158.28813 307.88437L162.50688 307.88437Z" fill-rule="nonzero"/><path fill="#000000" d="M206.86688 307.88437L206.86688 308.9L201.17938 308.9Q201.17938 308.525 201.30438 308.16562Q201.52313 307.5875 201.99188 307.025Q202.47626 306.4625 203.3825 305.72812Q204.78876 304.57187 205.27313 303.9Q205.77313 303.22812 205.77313 302.63437Q205.77313 302.00937 205.32 301.5875Q204.86688 301.15 204.14813 301.15Q203.3825 301.15 202.92938 301.60312Q202.47626 302.05624 202.46063 302.86874L201.3825 302.75937Q201.49188 301.54062 202.21063 300.91562Q202.945 300.275 204.17938 300.275Q205.41376 300.275 206.1325 300.9625Q206.85126 301.65 206.85126 302.66562Q206.85126 303.18124 206.6325 303.68124Q206.42938 304.16562 205.92938 304.72812Q205.445 305.275 204.32 306.22812Q203.36688 307.025 203.08563 307.32187Q202.82 307.60312 202.64813 307.88437L206.86688 307.88437ZM208.32 304.66562Q208.32 303.13437 208.6325 302.2125Q208.945 301.275 209.55438 300.775Q210.17938 300.275 211.11688 300.275Q211.80438 300.275 212.32 300.55624Q212.85126 300.8375 213.195 301.36874Q213.53876 301.88437 213.72626 302.63437Q213.91376 303.38437 213.91376 304.66562Q213.91376 306.18124 213.60126 307.10312Q213.30438 308.025 212.67938 308.54062Q212.07 309.04062 211.11688 309.04062Q209.8825 309.04062 209.16376 308.15Q208.32 307.0875 208.32 304.66562ZM209.39813 304.66562Q209.39813 306.775 209.89813 307.47812Q210.39813 308.18124 211.11688 308.18124Q211.85126 308.18124 212.33563 307.47812Q212.83563 306.775 212.83563 304.66562Q212.83563 302.54062 212.33563 301.85312Q211.85126 301.15 211.10126 301.15Q210.3825 301.15 209.945 301.75937Q209.39813 302.54062 209.39813 304.66562ZM219.28876 308.9L218.24188 308.9L218.24188 302.18124Q217.85126 302.54062 217.22626 302.91562Q216.61688 303.275 216.1325 303.44687L216.1325 302.43124Q217.0075 302.00937 217.66376 301.43124Q218.33563 300.8375 218.61688 300.275L219.28876 300.275L219.28876 308.9ZM225.695 308.9L225.695 306.8375L221.97626 306.8375L221.97626 305.86874L225.89813 300.30624L226.7575 300.30624L226.7575 305.86874L227.91376 305.86874L227.91376 306.8375L226.7575 306.8375L226.7575 308.9L225.695 308.9ZM225.695 305.86874L225.695 302.00937L223.0075 305.86874L225.695 305.86874Z" fill-rule="nonzero"/><path fill="#000000" d="M272.22687 307.88437L272.22687 308.9L266.53937 308.9Q266.53937 308.525 266.66437 308.16562Q266.88312 307.5875 267.35187 307.025Q267.83624 306.4625 268.7425 305.72812Q270.14874 304.57187 270.63312 303.9Q271.13312 303.22812 271.13312 302.63437Q271.13312 302.00937 270.68 301.5875Q270.22687 301.15 269.50812 301.15Q268.7425 301.15 268.28937 301.60312Q267.83624 302.05624 267.82062 302.86874L266.7425 302.75937Q266.85187 301.54062 267.57062 300.91562Q268.305 300.275 269.53937 300.275Q270.77374 300.275 271.4925 300.9625Q272.21124 301.65 272.21124 302.66562Q272.21124 303.18124 271.9925 303.68124Q271.78937 304.16562 271.28937 304.72812Q270.805 305.275 269.68 306.22812Q268.72687 307.025 268.44562 307.32187Q268.18 307.60312 268.00812 307.88437L272.22687 307.88437ZM273.68 304.66562Q273.68 303.13437 273.9925 302.2125Q274.305 301.275 274.91437 300.775Q275.53937 300.275 276.47687 300.275Q277.16437 300.275 277.68 300.55624Q278.21124 300.8375 278.555 301.36874Q278.89874 301.88437 279.08624 302.63437Q279.27374 303.38437 279.27374 304.66562Q279.27374 306.18124 278.96124 307.10312Q278.66437 308.025 278.03937 308.54062Q277.43 309.04062 276.47687 309.04062Q275.2425 309.04062 274.52374 308.15Q273.68 307.0875 273.68 304.66562ZM274.75812 304.66562Q274.75812 306.775 275.25812 307.47812Q275.75812 308.18124 276.47687 308.18124Q277.21124 308.18124 277.69562 307.47812Q278.19562 306.775 278.19562 304.66562Q278.19562 302.54062 277.69562 301.85312Q277.21124 301.15 276.46124 301.15Q275.7425 301.15 275.305 301.75937Q274.75812 302.54062 274.75812 304.66562ZM284.64874 308.9L283.60187 308.9L283.60187 302.18124Q283.21124 302.54062 282.58624 302.91562Q281.97687 303.275 281.4925 303.44687L281.4925 302.43124Q282.3675 302.00937 283.02374 301.43124Q283.69562 300.8375 283.97687 300.275L284.64874 300.275L284.64874 308.9ZM293.14874 302.41562L292.10187 302.49374Q291.96124 301.86874 291.71124 301.5875Q291.27374 301.13437 290.64874 301.13437Q290.14874 301.13437 289.75812 301.41562Q289.27374 301.79062 288.97687 302.49374Q288.69562 303.18124 288.68 304.4625Q289.055 303.88437 289.60187 303.60312Q290.16437 303.32187 290.77374 303.32187Q291.82062 303.32187 292.555 304.10312Q293.305 304.88437 293.305 306.10312Q293.305 306.91562 292.94562 307.61874Q292.60187 308.30624 291.9925 308.68124Q291.38312 309.04062 290.6175 309.04062Q289.28937 309.04062 288.46124 308.07187Q287.63312 307.10312 287.63312 304.88437Q287.63312 302.38437 288.555 301.25937Q289.35187 300.275 290.71124 300.275Q291.72687 300.275 292.3675 300.85312Q293.02374 301.41562 293.14874 302.41562ZM288.85187 306.11874Q288.85187 306.66562 289.07062 307.16562Q289.305 307.65 289.71124 307.91562Q290.13312 308.18124 290.60187 308.18124Q291.25812 308.18124 291.7425 307.65Q292.22687 307.10312 292.22687 306.18124Q292.22687 305.29062 291.7425 304.775Q291.27374 304.25937 290.555 304.25937Q289.83624 304.25937 289.33624 304.775Q288.85187 305.29062 288.85187 306.11874Z" fill-rule="nonzero"/><path fill="#000000" d="M337.58688 307.88437L337.58688 308.9L331.89938 308.9Q331.89938 308.525 332.02438 308.16562Q332.24313 307.5875 332.71188 307.025Q333.19626 306.4625 334.1025 305.72812Q335.50876 304.57187 335.99313 303.9Q336.49313 303.22812 336.49313 302.63437Q336.49313 302.00937 336.04 301.5875Q335.58688 301.15 334.86813 301.15Q334.1025 301.15 333.64938 301.60312Q333.19626 302.05624 333.18063 302.86874L332.1025 302.75937Q332.21188 301.54062 332.93063 300.91562Q333.665 300.275 334.89938 300.275Q336.13376 300.275 336.8525 300.9625Q337.57126 301.65 337.57126 302.66562Q337.57126 303.18124 337.3525 303.68124Q337.14938 304.16562 336.64938 304.72812Q336.165 305.275 335.04 306.22812Q334.08688 307.025 333.80563 307.32187Q333.54 307.60312 333.36813 307.88437L337.58688 307.88437ZM339.04 304.66562Q339.04 303.13437 339.3525 302.2125Q339.665 301.275 340.27438 300.775Q340.89938 300.275 341.83688 300.275Q342.52438 300.275 343.04 300.55624Q343.57126 300.8375 343.915 301.36874Q344.25876 301.88437 344.44626 302.63437Q344.63376 303.38437 344.63376 304.66562Q344.63376 306.18124 344.32126 307.10312Q344.02438 308.025 343.39938 308.54062Q342.79 309.04062 341.83688 309.04062Q340.6025 309.04062 339.88376 308.15Q339.04 307.0875 339.04 304.66562ZM340.11813 304.66562Q340.11813 306.775 340.61813 307.47812Q341.11813 308.18124 341.83688 308.18124Q342.57126 308.18124 343.05563 307.47812Q343.55563 306.775 343.55563 304.66562Q343.55563 302.54062 343.05563 301.85312Q342.57126 301.15 341.82126 301.15Q341.1025 301.15 340.665 301.75937Q340.11813 302.54062 340.11813 304.66562ZM350.00876 308.9L348.96188 308.9L348.96188 302.18124Q348.57126 302.54062 347.94626 302.91562Q347.33688 303.275 346.8525 303.44687L346.8525 302.43124Q347.7275 302.00937 348.38376 301.43124Q349.05563 300.8375 349.33688 300.275L350.00876 300.275L350.00876 308.9ZM354.665 304.24374Q354.00876 303.99374 353.68063 303.55624Q353.36813 303.10312 353.36813 302.49374Q353.36813 301.55624 354.04 300.91562Q354.7275 300.275 355.83688 300.275Q356.96188 300.275 357.64938 300.93124Q358.33688 301.5875 358.33688 302.525Q358.33688 303.11874 358.02438 303.55624Q357.71188 303.99374 357.07126 304.24374Q357.86813 304.49374 358.27438 305.07187Q358.68063 305.65 358.68063 306.44687Q358.68063 307.54062 357.89938 308.29062Q357.13376 309.04062 355.8525 309.04062Q354.58688 309.04062 353.80563 308.29062Q353.02438 307.54062 353.02438 306.41562Q353.02438 305.57187 353.44626 305.00937Q353.88376 304.44687 354.665 304.24374ZM354.44626 302.44687Q354.44626 303.05624 354.83688 303.44687Q355.24313 303.8375 355.86813 303.8375Q356.4775 303.8375 356.86813 303.4625Q357.25876 303.07187 357.25876 302.50937Q357.25876 301.93124 356.8525 301.54062Q356.44626 301.13437 355.8525 301.13437Q355.24313 301.13437 354.83688 301.525Q354.44626 301.91562 354.44626 302.44687ZM354.11813 306.41562Q354.11813 306.86874 354.32126 307.29062Q354.54 307.7125 354.96188 307.94687Q355.38376 308.18124 355.86813 308.18124Q356.61813 308.18124 357.1025 307.69687Q357.6025 307.2125 357.6025 306.4625Q357.6025 305.69687 357.1025 305.19687Q356.6025 304.69687 355.83688 304.69687Q355.08688 304.69687 354.6025 305.19687Q354.11813 305.68124 354.11813 306.41562Z" fill-rule="nonzero"/><path fill="#000000" d="M402.94687 307.88437L402.94687 308.9L397.25937 308.9Q397.25937 308.525 397.38437 308.16562Q397.60312 307.5875 398.07187 307.025Q398.55624 306.4625 399.4625 305.72812Q400.86874 304.57187 401.35312 303.9Q401.85312 303.22812 401.85312 302.63437Q401.85312 302.00937 401.4 301.5875Q400.94687 301.15 400.22812 301.15Q399.4625 301.15 399.00937 301.60312Q398.55624 302.05624 398.54062 302.86874L397.4625 302.75937Q397.57187 301.54062 398.29062 300.91562Q399.025 300.275 400.25937 300.275Q401.49374 300.275 402.2125 300.9625Q402.93124 301.65 402.93124 302.66562Q402.93124 303.18124 402.7125 303.68124Q402.50937 304.16562 402.00937 304.72812Q401.525 305.275 400.4 306.22812Q399.44687 307.025 399.16562 307.32187Q398.9 307.60312 398.72812 307.88437L402.94687 307.88437ZM404.4 304.66562Q404.4 303.13437 404.7125 302.2125Q405.025 301.275 405.63437 300.775Q406.25937 300.275 407.19687 300.275Q407.88437 300.275 408.4 300.55624Q408.93124 300.8375 409.275 301.36874Q409.61874 301.88437 409.80624 302.63437Q409.99374 303.38437 409.99374 304.66562Q409.99374 306.18124 409.68124 307.10312Q409.38437 308.025 408.75937 308.54062Q408.15 309.04062 407.19687 309.04062Q405.9625 309.04062 405.24374 308.15Q404.4 307.0875 404.4 304.66562ZM405.47812 304.66562Q405.47812 306.775 405.97812 307.47812Q406.47812 308.18124 407.19687 308.18124Q407.93124 308.18124 408.41562 307.47812Q408.91562 306.775 408.91562 304.66562Q408.91562 302.54062 408.41562 301.85312Q407.93124 301.15 407.18124 301.15Q406.4625 301.15 406.025 301.75937Q405.47812 302.54062 405.47812 304.66562ZM416.94687 307.88437L416.94687 308.9L411.25937 308.9Q411.25937 308.525 411.38437 308.16562Q411.60312 307.5875 412.07187 307.025Q412.55624 306.4625 413.4625 305.72812Q414.86874 304.57187 415.35312 303.9Q415.85312 303.22812 415.85312 302.63437Q415.85312 302.00937 415.4 301.5875Q414.94687 301.15 414.22812 301.15Q413.4625 301.15 413.00937 301.60312Q412.55624 302.05624 412.54062 302.86874L411.4625 302.75937Q411.57187 301.54062 412.29062 300.91562Q413.025 300.275 414.25937 300.275Q415.49374 300.275 416.2125 300.9625Q416.93124 301.65 416.93124 302.66562Q416.93124 303.18124 416.7125 303.68124Q416.50937 304.16562 416.00937 304.72812Q415.525 305.275 414.4 306.22812Q413.44687 307.025 413.16562 307.32187Q412.9 307.60312 412.72812 307.88437L416.94687 307.88437ZM418.4 304.66562Q418.4 303.13437 418.7125 302.2125Q419.025 301.275 419.63437 300.775Q420.25937 300.275 421.19687 300.275Q421.88437 300.275 422.4 300.55624Q422.93124 300.8375 423.275 301.36874Q423.61874 301.88437 423.80624 302.63437Q423.99374 303.38437 423.99374 304.66562Q423.99374 306.18124 423.68124 307.10312Q423.38437 308.025 422.75937 308.54062Q422.15 309.04062 421.19687 309.04062Q419.9625 309.04062 419.24374 308.15Q418.4 307.0875 418.4 304.66562ZM419.47812 304.66562Q419.47812 306.775 419.97812 307.47812Q420.47812 308.18124 421.19687 308.18124Q421.93124 308.18124 422.41562 307.47812Q422.91562 306.775 422.91562 304.66562Q422.91562 302.54062 422.41562 301.85312Q421.93124 301.15 421.18124 301.15Q420.4625 301.15 420.025 301.75937Q419.47812 302.54062 419.47812 304.66562Z" fill-rule="nonzero"/><path fill="#757575" d="M29.865625 32.084373L31.75625 32.553123Q31.1625 34.896873 29.615625 36.13125Q28.06875 37.35 25.81875 37.35Q23.50625 37.35 22.053125 36.4125Q20.615625 35.459373 19.85 33.678123Q19.1 31.881248 19.1 29.834373Q19.1 27.599998 19.94375 25.943748Q20.803125 24.271873 22.38125 23.412498Q23.959375 22.537498 25.85 22.537498Q28.00625 22.537498 29.459375 23.631248Q30.928125 24.724998 31.50625 26.709373L29.646875 27.146873Q29.146875 25.584373 28.19375 24.881248Q27.25625 24.162498 25.81875 24.162498Q24.1625 24.162498 23.053125 24.959373Q21.94375 25.740623 21.490625 27.084373Q21.053125 28.412498 21.053125 29.818748Q21.053125 31.646873 21.584375 33.021873Q22.115625 34.38125 23.240625 35.053123Q24.365625 35.725 25.6625 35.725Q27.25625 35.725 28.365625 34.803123Q29.475 33.88125 29.865625 32.084373ZM40.209373 37.1L40.209373 35.56875Q39.00625 37.334373 36.928123 37.334373Q36.00625 37.334373 35.209373 36.990623Q34.4125 36.63125 34.021873 36.1Q33.646873 35.56875 33.490623 34.7875Q33.38125 34.271873 33.38125 33.146873L33.38125 26.724998L35.13125 26.724998L35.13125 32.475Q35.13125 33.85 35.240623 34.334373Q35.4125 35.021873 35.94375 35.428123Q36.490623 35.81875 37.271873 35.81875Q38.06875 35.81875 38.75625 35.4125Q39.459373 35.00625 39.740623 34.31875Q40.0375 33.615623 40.0375 32.2875L40.0375 26.724998L41.7875 26.724998L41.7875 37.1L40.209373 37.1ZM43.709373 34.00625L45.459373 33.725Q45.6 34.771873 46.271873 35.334373Q46.94375 35.88125 48.146873 35.88125Q49.35 35.88125 49.928123 35.396873Q50.521873 34.896873 50.521873 34.240623Q50.521873 33.646873 50.00625 33.303123Q49.646873 33.06875 48.209373 32.709373Q46.271873 32.209373 45.521873 31.865623Q44.7875 31.506248 44.396873 30.881248Q44.00625 30.240623 44.00625 29.474998Q44.00625 28.787498 44.31875 28.193748Q44.646873 27.599998 45.19375 27.209373Q45.6 26.912498 46.303123 26.709373Q47.021873 26.490623 47.834373 26.490623Q49.053123 26.490623 49.975 26.849998Q50.896873 27.193748 51.334373 27.803123Q51.771873 28.396873 51.94375 29.396873L50.225 29.631248Q50.1 28.834373 49.5375 28.396873Q48.975 27.943748 47.959373 27.943748Q46.740623 27.943748 46.225 28.349998Q45.709373 28.740623 45.709373 29.271873Q45.709373 29.615623 45.928123 29.896873Q46.13125 30.178123 46.6 30.365623Q46.865623 30.459373 48.146873 30.803123Q50.021873 31.303123 50.75625 31.631248Q51.490623 31.943748 51.9125 32.553123Q52.334373 33.146873 52.334373 34.053123Q52.334373 34.928123 51.81875 35.709373Q51.303123 36.490623 50.334373 36.9125Q49.365623 37.334373 48.146873 37.334373Q46.13125 37.334373 45.06875 36.490623Q44.00625 35.646873 43.709373 34.00625ZM58.25625 35.521873L58.50625 37.084373Q57.771873 37.240623 57.178123 37.240623Q56.225 37.240623 55.69375 36.94375Q55.178123 36.63125 54.959373 36.146873Q54.740623 35.646873 54.740623 34.06875L54.740623 28.099998L53.459373 28.099998L53.459373 26.724998L54.740623 26.724998L54.740623 24.162498L56.490623 23.099998L56.490623 26.724998L58.25625 26.724998L58.25625 28.099998L56.490623 28.099998L56.490623 34.1625Q56.490623 34.9125 56.584373 35.13125Q56.678123 35.334373 56.88125 35.475Q57.1 35.6 57.490623 35.6Q57.771873 35.6 58.25625 35.521873ZM59.771873 31.912498Q59.771873 29.037498 61.365623 27.646873Q62.709373 26.490623 64.63125 26.490623Q66.77187 26.490623 68.11562 27.896873Q69.475 29.303123 69.475 31.771873Q69.475 33.771873 68.88125 34.928123Q68.2875 36.06875 67.13125 36.709373Q65.99062 37.334373 64.63125 37.334373Q62.44375 37.334373 61.1 35.94375Q59.771873 34.5375 59.771873 31.912498ZM61.56875 31.912498Q61.56875 33.9125 62.428123 34.896873Q63.303123 35.88125 64.63125 35.88125Q65.94375 35.88125 66.80312 34.896873Q67.67812 33.896873 67.67812 31.849998Q67.67812 29.928123 66.80312 28.943748Q65.92812 27.943748 64.63125 27.943748Q63.303123 27.943748 62.428123 28.943748Q61.56875 29.928123 61.56875 31.912498ZM71.4125 37.1L71.4125 26.724998L72.99062 26.724998L72.99062 28.178123Q73.475 27.428123 74.2875 26.959373Q75.1 26.490623 76.13125 26.490623Q77.2875 26.490623 78.02187 26.974998Q78.75625 27.443748 79.06875 28.303123Q80.30312 26.490623 82.27187 26.490623Q83.81875 26.490623 84.64687 27.349998Q85.475 28.209373 85.475 29.974998L85.475 37.1L83.725 37.1L83.725 30.568748Q83.725 29.506248 83.55312 29.053123Q83.38125 28.584373 82.92812 28.303123Q82.49062 28.021873 81.88125 28.021873Q80.7875 28.021873 80.05312 28.756248Q79.33437 29.474998 79.33437 31.068748L79.33437 37.1L77.58437 37.1L77.58437 30.365623Q77.58437 29.193748 77.14687 28.615623Q76.725 28.021873 75.74062 28.021873Q75.00625 28.021873 74.36562 28.412498Q73.74062 28.803123 73.45937 29.553123Q73.17812 30.303123 73.17812 31.724998L73.17812 37.1L71.4125 37.1ZM95.52187 33.75625L97.33437 33.990623Q96.9125 35.56875 95.74062 36.459373Q94.58437 37.334373 92.77187 37.334373Q90.50625 37.334373 89.1625 35.94375Q87.83437 34.5375 87.83437 32.00625Q87.83437 29.381248 89.17812 27.943748Q90.52187 26.490623 92.67812 26.490623Q94.75625 26.490623 96.06875 27.912498Q97.39687 29.318748 97.39687 31.896873Q97.39687 32.053123 97.38125 32.365623L89.64687 32.365623Q89.74062 34.06875 90.61562 34.975Q91.49062 35.88125 92.7875 35.88125Q93.75625 35.88125 94.42812 35.38125Q95.11562 34.865623 95.52187 33.75625ZM89.74062 30.912498L95.5375 30.912498Q95.42812 29.615623 94.88125 28.959373Q94.0375 27.943748 92.69375 27.943748Q91.49062 27.943748 90.6625 28.756248Q89.83437 29.553123 89.74062 30.912498ZM99.39687 37.1L99.39687 26.724998L100.975 26.724998L100.975 28.303123Q101.58437 27.193748 102.1 26.849998Q102.61562 26.490623 103.225 26.490623Q104.11562 26.490623 105.0375 27.053123L104.42812 28.693748Q103.7875 28.303123 103.14687 28.303123Q102.56875 28.303123 102.1 28.662498Q101.64687 29.006248 101.44375 29.615623Q101.1625 30.553123 101.1625 31.662498L101.1625 37.1L99.39687 37.1ZM112.63125 37.1L112.63125 22.787498L114.56875 22.787498L122.08437 34.021873L122.08437 22.787498L123.89687 22.787498L123.89687 37.1L121.95937 37.1L114.44375 25.849998L114.44375 37.1L112.63125 37.1ZM133.20938 37.1L133.20938 35.56875Q132.00626 37.334373 129.92813 37.334373Q129.00626 37.334373 128.20938 36.990623Q127.4125 36.63125 127.02187 36.1Q126.64687 35.56875 126.49062 34.7875Q126.38125 34.271873 126.38125 33.146873L126.38125 26.724998L128.13126 26.724998L128.13126 32.475Q128.13126 33.85 128.24063 34.334373Q128.4125 35.021873 128.94376 35.428123Q129.49063 35.81875 130.27188 35.81875Q131.06876 35.81875 131.75626 35.4125Q132.45938 35.00625 132.74063 34.31875Q133.0375 33.615623 133.0375 32.2875L133.0375 26.724998L134.7875 26.724998L134.7875 37.1L133.20938 37.1ZM137.4125 37.1L137.4125 26.724998L138.99063 26.724998L138.99063 28.178123Q139.475 27.428123 140.2875 26.959373Q141.1 26.490623 142.13126 26.490623Q143.2875 26.490623 144.02188 26.974998Q144.75626 27.443748 145.06876 28.303123Q146.30313 26.490623 148.27188 26.490623Q149.81876 26.490623 150.64688 27.349998Q151.475 28.209373 151.475 29.974998L151.475 37.1L149.725 37.1L149.725 30.568748Q149.725 29.506248 149.55313 29.053123Q149.38126 28.584373 148.92813 28.303123Q148.49063 28.021873 147.88126 28.021873Q146.7875 28.021873 146.05313 28.756248Q145.33438 29.474998 145.33438 31.068748L145.33438 37.1L143.58438 37.1L143.58438 30.365623Q143.58438 29.193748 143.14688 28.615623Q142.725 28.021873 141.74063 28.021873Q141.00626 28.021873 140.36563 28.412498Q139.74063 28.803123 139.45938 29.553123Q139.17813 30.303123 139.17813 31.724998L139.17813 37.1L137.4125 37.1ZM156.0375 37.1L154.4125 37.1L154.4125 22.787498L156.1625 22.787498L156.1625 27.896873Q157.2875 26.490623 159.00626 26.490623Q159.95938 26.490623 160.81876 26.881248Q161.67813 27.271873 162.225 27.974998Q162.77188 28.662498 163.08438 29.646873Q163.39688 30.631248 163.39688 31.756248Q163.39688 34.428123 162.08438 35.88125Q160.77188 37.334373 158.92813 37.334373Q157.08438 37.334373 156.0375 35.803123L156.0375 37.1ZM156.02188 31.834373Q156.02188 33.69375 156.52188 34.5375Q157.36563 35.88125 158.77188 35.88125Q159.92813 35.88125 160.75626 34.88125Q161.6 33.88125 161.6 31.896873Q161.6 29.865623 160.7875 28.912498Q159.99063 27.943748 158.85 27.943748Q157.69376 27.943748 156.85 28.943748Q156.02188 29.943748 156.02188 31.834373ZM172.52188 33.75625L174.33438 33.990623Q173.9125 35.56875 172.74063 36.459373Q171.58438 37.334373 169.77188 37.334373Q167.50626 37.334373 166.1625 35.94375Q164.83438 34.5375 164.83438 32.00625Q164.83438 29.381248 166.17813 27.943748Q167.52188 26.490623 169.67813 26.490623Q171.75626 26.490623 173.06876 27.912498Q174.39688 29.318748 174.39688 31.896873Q174.39688 32.053123 174.38126 32.365623L166.64688 32.365623Q166.74063 34.06875 167.61563 34.975Q168.49063 35.88125 169.7875 35.88125Q170.75626 35.88125 171.42813 35.38125Q172.11563 34.865623 172.52188 33.75625ZM166.74063 30.912498L172.5375 30.912498Q172.42813 29.615623 171.88126 28.959373Q171.0375 27.943748 169.69376 27.943748Q168.49063 27.943748 167.6625 28.756248Q166.83438 29.553123 166.74063 30.912498ZM176.39688 37.1L176.39688 26.724998L177.975 26.724998L177.975 28.303123Q178.58438 27.193748 179.1 26.849998Q179.61563 26.490623 180.225 26.490623Q181.11563 26.490623 182.0375 27.053123L181.42813 28.693748Q180.7875 28.303123 180.14688 28.303123Q179.56876 28.303123 179.1 28.662498Q178.64688 29.006248 178.44376 29.615623Q178.1625 30.553123 178.1625 31.662498L178.1625 37.1L176.39688 37.1ZM192.30313 37.1L188.35 26.724998L190.20938 26.724998L192.44376 32.94375Q192.80313 33.94375 193.1 35.021873Q193.33438 34.209373 193.75626 33.053123L196.05313 26.724998L197.86563 26.724998L193.94376 37.1L192.30313 37.1ZM198.70938 34.00625L200.45938 33.725Q200.6 34.771873 201.27188 35.334373Q201.94376 35.88125 203.14688 35.88125Q204.35 35.88125 204.92813 35.396873Q205.52188 34.896873 205.52188 34.240623Q205.52188 33.646873 205.00626 33.303123Q204.64688 33.06875 203.20938 32.709373Q201.27188 32.209373 200.52188 31.865623Q199.7875 31.506248 199.39688 30.881248Q199.00626 30.240623 199.00626 29.474998Q199.00626 28.787498 199.31876 28.193748Q199.64688 27.599998 200.19376 27.209373Q200.6 26.912498 201.30313 26.709373Q202.02188 26.490623 202.83438 26.490623Q204.05313 26.490623 204.975 26.849998Q205.89688 27.193748 206.33438 27.803123Q206.77188 28.396873 206.94376 29.396873L205.225 29.631248Q205.1 28.834373 204.5375 28.396873Q203.975 27.943748 202.95938 27.943748Q201.74063 27.943748 201.225 28.349998Q200.70938 28.740623 200.70938 29.271873Q200.70938 29.615623 200.92813 29.896873Q201.13126 30.178123 201.6 30.365623Q201.86563 30.459373 203.14688 30.803123Q205.02188 31.303123 205.75626 31.631248Q206.49063 31.943748 206.9125 32.553123Q207.33438 33.146873 207.33438 34.053123Q207.33438 34.928123 206.81876 35.709373Q206.30313 36.490623 205.33438 36.9125Q204.36563 37.334373 203.14688 37.334373Q201.13126 37.334373 200.06876 36.490623Q199.00626 35.646873 198.70938 34.00625ZM219.67813 37.1L219.67813 31.037498L214.1625 22.787498L216.45938 22.787498L219.2875 27.099998Q220.06876 28.303123 220.74063 29.521873Q221.38126 28.396873 222.30313 26.990623L225.08438 22.787498L227.2875 22.787498L221.56876 31.037498L221.56876 37.1L219.67813 37.1ZM235.52188 33.75625L237.33438 33.990623Q236.9125 35.56875 235.74063 36.459373Q234.58438 37.334373 232.77188 37.334373Q230.50626 37.334373 229.1625 35.94375Q227.83438 34.5375 227.83438 32.00625Q227.83438 29.381248 229.17813 27.943748Q230.52188 26.490623 232.67813 26.490623Q234.75626 26.490623 236.06876 27.912498Q237.39688 29.318748 237.39688 31.896873Q237.39688 32.053123 237.38126 32.365623L229.64688 32.365623Q229.74063 34.06875 230.61563 34.975Q231.49063 35.88125 232.7875 35.88125Q233.75626 35.88125 234.42813 35.38125Q235.11563 34.865623 235.52188 33.75625ZM229.74063 30.912498L235.5375 30.912498Q235.42813 29.615623 234.88126 28.959373Q234.0375 27.943748 232.69376 27.943748Q231.49063 27.943748 230.6625 28.756248Q229.83438 29.553123 229.74063 30.912498ZM246.19376 35.81875Q245.20938 36.646873 244.30313 36.990623Q243.39688 37.334373 242.36563 37.334373Q240.6625 37.334373 239.74063 36.50625Q238.81876 35.6625 238.81876 34.365623Q238.81876 33.6 239.1625 32.975Q239.52188 32.35 240.08438 31.974998Q240.64688 31.584373 241.35 31.381248Q241.86563 31.256248 242.9125 31.115623Q245.0375 30.865623 246.0375 30.521873Q246.05313 30.162498 246.05313 30.053123Q246.05313 28.990623 245.55313 28.537498Q244.88126 27.943748 243.55313 27.943748Q242.30313 27.943748 241.70938 28.381248Q241.13126 28.818748 240.85 29.928123L239.13126 29.693748Q239.36563 28.584373 239.89688 27.912498Q240.42813 27.224998 241.44376 26.865623Q242.45938 26.490623 243.80313 26.490623Q245.13126 26.490623 245.95938 26.803123Q246.7875 27.115623 247.17813 27.599998Q247.56876 28.068748 247.725 28.787498Q247.81876 29.240623 247.81876 30.412498L247.81876 32.75625Q247.81876 35.209373 247.92813 35.865623Q248.0375 36.50625 248.38126 37.1L246.5375 37.1Q246.27188 36.553123 246.19376 35.81875ZM246.0375 31.896873Q245.08438 32.2875 243.1625 32.553123Q242.08438 32.709373 241.63126 32.9125Q241.19376 33.1 240.94376 33.475Q240.69376 33.85 240.69376 34.31875Q240.69376 35.021873 241.225 35.490623Q241.75626 35.959373 242.7875 35.959373Q243.80313 35.959373 244.58438 35.521873Q245.38126 35.06875 245.75626 34.303123Q246.0375 33.69375 246.0375 32.5375L246.0375 31.896873ZM250.39688 37.1L250.39688 26.724998L251.975 26.724998L251.975 28.303123Q252.58438 27.193748 253.1 26.849998Q253.61563 26.490623 254.225 26.490623Q255.11563 26.490623 256.0375 27.053123L255.42813 28.693748Q254.7875 28.303123 254.14688 28.303123Q253.56876 28.303123 253.1 28.662498Q252.64688 29.006248 252.44376 29.615623Q252.1625 30.553123 252.1625 31.662498L252.1625 37.1L250.39688 37.1Z" fill-rule="nonzero"/></svg>